<svg width="147" height="143" viewBox="0 0 147 143" fill="none" xmlns="http://www.w3.org/2000/svg">
<path d="M0 0H146.831L147 123.045L72.0401 143L0 123.045V0Z" fill="#0A0A0A"/>
<path d="M36.9988 42.71C38.8023 42.71 39.7194 41.9702 39.7194 40.913V40.8438C39.7194 39.7866 38.8357 39.0468 37.0348 39.0468H32.8652V42.71H36.9988ZM36.4696 33.9781C38.2371 33.9781 39.0849 33.379 39.0849 32.2885V32.2168C39.0849 31.1263 38.2011 30.5273 36.4336 30.5273H32.8652V33.9781H36.4696ZM24.8112 24.2964H38.661C42.0881 24.2964 44.2435 25.072 45.6899 26.5133C46.5737 27.3939 47.2108 28.6611 47.2108 30.3506V30.4223C47.2108 33.3458 45.4433 35.1403 42.7946 36.0542C45.9725 36.9706 48.0226 38.6602 48.0226 42.0393V42.111C48.0226 46.0533 44.7727 48.941 38.5197 48.941H24.8112V24.2964Z" fill="#FEFEFE"/>
<path d="M67.2083 36.6891V36.6174C67.2083 33.6965 65.1941 31.0572 62.0162 31.0572C58.8717 31.0572 56.8935 33.6606 56.8935 36.5483V36.6174C56.8935 39.5408 58.9077 42.1801 62.0856 42.1801C65.2301 42.1801 67.2083 39.5767 67.2083 36.6891ZM48.5544 36.6891V36.6174C48.5544 29.4726 54.4555 23.769 62.0856 23.769C69.7182 23.769 75.5474 29.4009 75.5474 36.5483V36.6174C75.5474 43.7647 69.6463 49.4683 62.0162 49.4683C54.3836 49.4683 48.5544 43.8364 48.5544 36.6891Z" fill="#FEFEFE"/>
<path d="M90.4248 39.7866L88.164 33.8014L85.9007 39.7866H90.4248ZM84.1357 24.1197H92.331L102.754 48.941H93.7799L92.4723 45.6309H83.8172L82.5455 48.941H73.7131L84.1357 24.1197Z" fill="#FEFEFE"/>
<path d="M106.219 31.2671H98.9386V24.2964H121.765V31.2671H114.487V48.941H106.219V31.2671Z" fill="#FEFEFE"/>
<path d="M40.3771 77.3333C42.7149 77.3333 43.907 76.3733 43.907 75.0038V74.9116C43.907 73.542 42.7612 72.582 40.4233 72.582H35.0155V77.3333H40.3771ZM39.6912 66.0081C41.9828 66.0081 43.0823 65.2299 43.0823 63.8142V63.7246C43.0823 62.309 41.9365 61.5308 39.6449 61.5308H35.0155V66.0081H39.6912ZM24.5672 53.449H42.5325C46.977 53.449 49.7747 54.4525 51.6527 56.3264C52.7985 57.4681 53.6231 59.1116 53.6231 61.3029V61.3951C53.6231 65.1838 51.3315 67.5134 47.8941 68.7012C52.02 69.889 54.6764 72.0803 54.6764 76.4655V76.5576C54.6764 81.6699 50.4606 85.4176 42.3501 85.4176H24.5672V53.449Z" fill="#FEFEFE"/>
<path d="M79.5654 69.5229V69.4333C79.5654 65.642 76.9527 62.2168 72.8294 62.2168C68.7497 62.2168 66.1832 65.596 66.1832 69.3412V69.4333C66.1832 73.222 68.7959 76.6472 72.9193 76.6472C76.9989 76.6472 79.5654 73.2681 79.5654 69.5229ZM55.3675 69.5229V69.4333C55.3675 60.1612 63.0207 52.7629 72.9193 52.7629C82.8204 52.7629 90.3811 60.069 90.3811 69.3412V69.4333C90.3811 78.7029 82.7279 86.1011 72.8294 86.1011C62.9282 86.1011 55.3675 78.795 55.3675 69.5229Z" fill="#FEFEFE"/>
<path d="M98.4967 69.1594L88.0921 53.449H100.285L104.912 61.0751L109.587 53.449H121.549L111.147 69.0672L122.006 85.415H109.816L104.729 77.1055L99.5963 85.415H87.6348L98.4967 69.1594Z" fill="#FEFEFE"/>
<path d="M18.0572 108.849L72.5545 123.714L128.516 108.833V18.0322H18.0572V108.849ZM72.5313 131L11 114.217V11H135.576V114.235L72.5313 131Z" fill="#5194CF"/>
<path d="M122.507 105.296L71.979 117.276L24.0688 105.296V91.2005H122.507V105.296Z" fill="#5194CF"/>
</svg>
