<svg width="24" height="24" viewBox="0 0 24 24" fill="none" xmlns="http://www.w3.org/2000/svg">
<path d="M11 1V3.05859C9.26842 3.25154 7.68555 3.94059 6.39062 4.97656L4.92969 3.51562L3.51562 4.92969L4.97852 6.39258C3.94184 7.68638 3.25575 9.26899 3.0625 11H1V13H3.05859C3.25151 14.7313 3.94025 16.3148 4.97656 17.6094L3.51562 19.0703L4.92969 20.4844L6.39062 19.0234C7.68523 20.0598 9.26866 20.7485 11 20.9414V23H13V20.9414C14.7313 20.7485 16.3148 20.0598 17.6094 19.0234L19.0703 20.4844L20.4844 19.0703L19.0234 17.6094C20.0598 16.3148 20.7485 14.7313 20.9414 13H23V11H20.9375C20.7442 9.26899 20.0582 7.68638 19.0215 6.39258L20.4844 4.92969L19.0703 3.51562L17.6094 4.97656C16.3144 3.94059 14.7316 3.25154 13 3.05859V1H11ZM11 5.07812V8.14453C10.6398 8.23899 10.3045 8.39176 9.99023 8.57617L7.8125 6.39844C8.72785 5.7162 9.81337 5.24703 11 5.07812ZM13 5.07812C14.1866 5.24703 15.2722 5.7162 16.1875 6.39844L14.0098 8.57617C13.6955 8.39176 13.3602 8.23899 13 8.14453V5.07812ZM6.39258 7.80664L8.56641 9.98047C8.37799 10.295 8.23828 10.6377 8.14258 11H5.07812C5.24733 9.81187 5.70694 8.7212 6.39258 7.80664ZM17.6074 7.80664C18.2931 8.7212 18.7527 9.81187 18.9219 11H15.8574C15.7617 10.6377 15.622 10.295 15.4336 9.98047L17.6074 7.80664ZM12 10C13.1164 10 14 10.8836 14 12C14 13.1164 13.1164 14 12 14C10.8836 14 10 13.1164 10 12C10 10.8836 10.8836 10 12 10ZM5.07812 13H8.14453C8.23948 13.3621 8.38149 13.7023 8.56836 14.0176L6.39453 16.1914C5.71009 15.276 5.24718 14.1877 5.07812 13ZM15.8555 13H18.9219C18.7528 14.1877 18.2899 15.276 17.6055 16.1914L15.4316 14.0176C15.6185 13.7023 15.7605 13.3621 15.8555 13ZM9.98242 15.4316C10.2977 15.6185 10.6379 15.7605 11 15.8555V18.9219C9.81228 18.7528 8.72396 18.2899 7.80859 17.6055L9.98242 15.4316ZM14.0176 15.4316L16.1914 17.6055C15.276 18.2899 14.1877 18.7528 13 18.9219V15.8555C13.3621 15.7605 13.7023 15.6185 14.0176 15.4316Z" fill="black"/>
</svg>
